<svg width="14" height="22" viewBox="0 0 14 22" fill="none" xmlns="http://www.w3.org/2000/svg">
<g id="arrow-down 1">
<path id="Vector" d="M7.00032 14.6666C6.78224 14.6671 6.57091 14.5925 6.40298 14.4558L0.802982 9.87249C0.612386 9.71689 0.492518 9.4933 0.469768 9.25092C0.447018 9.00853 0.523234 8.76718 0.681658 8.57999C0.840082 8.39279 1.06772 8.27507 1.31453 8.25272C1.56132 8.23036 1.80705 8.30522 1.99766 8.46081L7.00032 12.5675L12.0031 8.60749C12.0984 8.53134 12.2083 8.47448 12.3262 8.44016C12.4442 8.40586 12.5678 8.39477 12.69 8.40755C12.8124 8.42032 12.931 8.45672 13.0388 8.51462C13.1467 8.57253 13.2419 8.65083 13.3191 8.74499C13.4045 8.83924 13.4691 8.94982 13.5092 9.06977C13.5491 9.18974 13.5634 9.31652 13.551 9.44217C13.5389 9.56781 13.5002 9.68961 13.4379 9.79993C13.3755 9.91026 13.2905 10.0067 13.1883 10.0833L7.58832 14.5108C7.41557 14.6259 7.20856 14.6808 7.00032 14.6666Z" fill="#2C2C2C"/>
</g>
</svg>
